<?xml version="1.0" standalone="no"?>
<!DOCTYPE svg PUBLIC "-//W3C//DTD SVG 20010904//EN"
 "http://www.w3.org/TR/2001/REC-SVG-20010904/DTD/svg10.dtd">
<svg version="1.0" xmlns="http://www.w3.org/2000/svg"
 width="260.000000pt" height="260.000000pt" viewBox="0 0 260.000000 260.000000"
 preserveAspectRatio="xMidYMid meet">
<metadata>
Created by potrace 1.11, written by Peter Selinger 2001-2013
</metadata>
<g transform="translate(0.000000,260.000000) scale(0.100000,-0.100000)"
fill="#000000" stroke="none">
<path d="M125 2581 c-22 -10 -52 -31 -67 -47 -61 -65 -58 -11 -58 -1234 0
-1223 -3 -1169 58 -1234 15 -16 45 -37 67 -47 38 -18 92 -19 1176 -19 l1135 0
50 25 c30 15 61 42 79 68 l30 42 0 1165 0 1165 -30 42 c-18 26 -49 53 -79 68
l-50 25 -1135 0 c-1084 0 -1138 -1 -1176 -19z m935 -416 c105 -36 193 -131
231 -248 73 -227 -72 -472 -300 -504 l-53 -8 62 -95 c76 -114 262 -304 368
-375 62 -42 76 -47 99 -39 27 10 29 11 65 88 29 61 104 129 165 150 26 9 76
16 112 16 85 0 150 -30 212 -97 97 -104 117 -254 49 -381 -36 -69 -82 -111
-156 -144 -39 -17 -67 -21 -142 -20 -434 5 -851 274 -1057 682 -99 197 -139
359 -140 570 0 136 2 148 26 200 86 182 278 267 459 205z"/>
</g>
</svg>
